<svg width="80" height="89" viewBox="0 0 80 89" fill="none" xmlns="http://www.w3.org/2000/svg">
<g clip-path="url(#clip0_10_26)">
<path d="M78.3465 58.0852C78.3465 64.514 76.1095 73.5083 71.3276 77.0844C68.0567 79.5318 56.197 88.6799 51.7974 88.6799L51.3664 77.695H20.4433C9.61487 77.695 0.833574 68.9162 0.833574 58.0852L0.382068 51.1125C-0.131008 43.206 -0.131008 35.2764 0.382068 27.3699L0.833574 20.3972C0.83614 9.57134 9.61487 0.792615 20.4433 0.792615L26.1923 0.425766C35.1173 -0.143748 44.0679 -0.143748 52.9903 0.425766L58.7393 0.792615C69.5677 0.792615 78.349 9.57134 78.349 20.4024L78.8826 28.6578C79.3393 35.7074 79.3393 42.7802 78.8826 49.8298L78.349 58.0852H78.3465Z" fill="url(#paint0_radial_10_26)"/>
<path d="M39.8968 60.2992C28.7912 60.2992 19.756 51.264 19.756 40.1584H24.0273C24.0273 48.9089 31.1463 56.0279 39.8968 56.0279C48.6473 56.0279 55.7662 48.9089 55.7662 40.1584H60.0375C60.0375 51.264 51.0023 60.2992 39.8968 60.2992Z" fill="white"/>
</g>
<defs>
<radialGradient id="paint0_radial_10_26" cx="0" cy="0" r="1" gradientUnits="userSpaceOnUse" gradientTransform="translate(39.7709 -5.37712) scale(93.7389 93.7389)">
<stop stop-color="#00FFFF"/>
<stop offset="1" stop-color="#5448DA"/>
</radialGradient>
<clipPath id="clip0_10_26">
<rect width="79.224" height="88.68" fill="white"/>
</clipPath>
</defs>
</svg>
