<svg width="26" height="26" viewBox="0 0 26 26" fill="none" xmlns="http://www.w3.org/2000/svg">
<g clip-path="url(#clip0_87_286)">
<path d="M13.0006 26.0012C20.1807 26.0012 26.0012 20.1807 26.0012 13.0006C26.0012 5.82057 20.1807 0 13.0006 0C5.82057 0 0 5.82057 0 13.0006C0 20.1807 5.82057 26.0012 13.0006 26.0012Z" fill="#5448DA"/>
<path d="M22.485 12.5635L5.72258 6.08964C5.53105 6.01597 5.30882 6.05035 5.15536 6.17803C5.00312 6.30572 4.94787 6.50339 5.01662 6.68141L7.11361 12.1302L14.7023 12.7207C15.0461 12.7477 15.0461 13.2511 14.7023 13.2781L7.11361 13.8686L5.01662 19.3174C4.95032 19.4893 4.99943 19.6808 5.14185 19.8085C5.14676 19.8122 5.15045 19.8171 5.15536 19.8208C5.26954 19.9165 5.42301 19.9607 5.57402 19.9448C5.62436 19.9398 5.67469 19.9276 5.72258 19.9092L22.485 13.4352C22.679 13.3604 22.8042 13.1885 22.8042 12.9994C22.8042 12.8091 22.679 12.6372 22.485 12.5635Z" fill="white"/>
</g>
<defs>
<clipPath id="clip0_87_286">
<rect width="26" height="26" fill="white"/>
</clipPath>
</defs>
</svg>
